<svg width="40" height="40" viewBox="0 0 40 40" fill="none" xmlns="http://www.w3.org/2000/svg">
<path d="M20.9227 27.5102C20.6858 27.7692 20.3512 27.9167 20.0002 27.9167C19.6492 27.9167 19.3145 27.7692 19.0777 27.5102L12.411 20.2185C11.9451 19.709 11.9805 18.9183 12.49 18.4525C12.9996 17.9867 13.7902 18.022 14.256 18.5315L18.7502 23.447V5C18.7502 4.30965 19.3098 3.75 20.0002 3.75C20.6905 3.75 21.2502 4.30965 21.2502 5V23.447L25.7443 18.5315C26.2102 18.022 27.0008 17.9867 27.5103 18.4525C28.0198 18.9183 28.0552 19.709 27.5893 20.2185L20.9227 27.5102Z" fill="#526AFF"/>
<path d="M6.25 25C6.25 24.3097 5.69037 23.75 5 23.75C4.30965 23.75 3.75 24.3097 3.75 25V25.0915C3.74997 27.3708 3.74993 29.208 3.9442 30.653C4.1459 32.1532 4.57738 33.4162 5.58058 34.4193C6.58378 35.4227 7.8469 35.8542 9.34708 36.0558C10.792 36.25 12.6292 36.25 14.9086 36.25H25.0915C27.3708 36.25 29.208 36.25 30.653 36.0558C32.1532 35.8542 33.4162 35.4227 34.4195 34.4193C35.4227 33.4162 35.8542 32.1532 36.0558 30.653C36.25 29.208 36.25 27.3708 36.25 25.0915V25C36.25 24.3097 35.6903 23.75 35 23.75C34.3097 23.75 33.75 24.3097 33.75 25C33.75 27.3923 33.7473 29.0608 33.5782 30.3198C33.4137 31.5428 33.113 32.1903 32.6517 32.6517C32.1903 33.113 31.5428 33.4137 30.3198 33.5782C29.0608 33.7473 27.3923 33.75 25 33.75H15C12.6077 33.75 10.9391 33.7473 9.6802 33.5782C8.45725 33.4137 7.80962 33.113 7.34835 32.6517C6.88708 32.1903 6.58633 31.5428 6.42192 30.3198C6.25265 29.0608 6.25 27.3923 6.25 25Z" fill="#526AFF"/>
</svg>
