<svg width="75" height="75" viewBox="0 0 75 75" fill="none" xmlns="http://www.w3.org/2000/svg">
<path d="M40.625 9.375V23.125C40.625 24.8752 40.625 25.7502 40.9656 26.4187C41.2653 27.0067 41.7431 27.4848 42.3312 27.7844C42.9997 28.125 43.8747 28.125 45.625 28.125H59.375M40.625 9.375H25.625C22.1247 9.375 20.3745 9.375 19.0376 10.0562C17.8615 10.6554 16.9054 11.6115 16.3062 12.7876C15.625 14.1245 15.625 15.8747 15.625 19.375V55.625C15.625 59.1253 15.625 60.8756 16.3062 62.2125C16.9054 63.3884 17.8615 64.3447 19.0376 64.9437C20.3745 65.625 22.1247 65.625 25.625 65.625H32.8125M40.625 9.375L59.375 28.125M59.375 28.125V34.375M65.625 45.3125V54.6875H56.25M60.9375 63.2378C59.2787 64.7222 57.0887 65.625 54.6875 65.625C49.5097 65.625 45.3125 61.4278 45.3125 56.25C45.3125 51.0722 49.5097 46.875 54.6875 46.875C58.7694 46.875 62.2422 49.4838 63.5291 53.125" stroke="#526AFF" stroke-width="4" stroke-linecap="round" stroke-linejoin="round"/>
</svg>
