<svg width="57" height="56" viewBox="0 0 57 56" fill="none" xmlns="http://www.w3.org/2000/svg">
<path d="M28.5 41.3378C27.6767 41.3378 26.9965 41.0541 26.4594 40.4865C25.9198 39.9189 25.65 39.2568 25.65 38.5V9.55405L18.335 16.8378C17.765 17.3423 17.1 17.611 16.34 17.6438C15.58 17.6741 14.8833 17.3739 14.25 16.7432C13.68 16.1757 13.4115 15.4971 13.4444 14.7076C13.4748 13.9205 13.7433 13.2748 14.25 12.7703L26.125 0.945946C26.4417 0.630631 26.8065 0.393515 27.2194 0.234596C27.6298 0.0781993 28.0567 0 28.5 0C28.9433 0 29.3715 0.0781993 29.7844 0.234596C30.1948 0.393515 30.5583 0.630631 30.875 0.945946L42.75 12.7703C43.32 13.3378 43.5898 14 43.5594 14.7568C43.5265 15.5135 43.2567 16.1757 42.75 16.7432C42.1167 17.3108 41.42 17.611 40.66 17.6438C39.9 17.6741 39.235 17.4054 38.665 16.8378L31.35 9.55405V38.5C31.35 39.2568 31.0815 39.9189 30.5444 40.4865C30.0048 41.0541 29.3233 41.3378 28.5 41.3378ZM6.84 56C4.94 56 3.325 55.3378 1.995 54.0135C0.665 52.6892 0 51.0811 0 49.1892V41.8108C0 40.991 0.269799 40.3124 0.809399 39.7751C1.34647 39.2404 2.02667 38.973 2.85 38.973C3.67333 38.973 4.35353 39.2404 4.8906 39.7751C5.4302 40.3124 5.7 40.991 5.7 41.8108V49.1892C5.7 49.4414 5.82667 49.6937 6.08 49.9459C6.33333 50.1982 6.58667 50.3243 6.84 50.3243H50.16C50.4133 50.3243 50.6667 50.1982 50.92 49.9459C51.1733 49.6937 51.3 49.4414 51.3 49.1892V41.8108C51.3 40.991 51.5685 40.3124 52.1056 39.7751C52.6452 39.2404 53.3267 38.973 54.15 38.973C54.9733 38.973 55.6548 39.2404 56.1944 39.7751C56.7315 40.3124 57 40.991 57 41.8108V49.1892C57 51.0811 56.335 52.6892 55.005 54.0135C53.675 55.3378 52.06 56 50.16 56H6.84Z" fill="#526AFF"/>
</svg>
